<svg xmlns="http://www.w3.org/2000/svg" xmlns:xlink="http://www.w3.org/1999/xlink" width="164.489" height="91.827" viewBox="0 0 164.489 91.827">
  <defs>
    <clipPath id="clip-path">
      <rect id="Rectangle_1751" data-name="Rectangle 1751" width="164.489" height="91.827" transform="translate(0 0)" fill="none"/>
    </clipPath>
  </defs>
  <g id="Groupe_4524" data-name="Groupe 4524" transform="translate(0 0)">
    <g id="Groupe_4523" data-name="Groupe 4523" clip-path="url(#clip-path)">
      <path id="Tracé_2947" data-name="Tracé 2947" d="M14.657,91.827c-.048,0-.1,0-.146,0A2.5,2.5,0,0,1,12.569,90.7L.412,72.249A2.5,2.5,0,0,1,4.588,69.5L14.9,85.153,28.266,69.265a2.5,2.5,0,0,1,3.827,3.218L16.57,90.936a2.5,2.5,0,0,1-1.913.891" fill="#fcbb24"/>
      <path id="Tracé_2948" data-name="Tracé 2948" d="M148.775.218c-9.82-1.519-17.032,5.335-19.68,7.85a30.748,30.748,0,0,0-8.625,15.308,47.655,47.655,0,0,0-17.448-4.039c-5.223-.192-11.866-.538-18.327,3.291-6.21,3.68-10.88,10.29-13.16,18.48-10.68-5.15-25.36-9.02-38.94-1.66-15.54,8.43-23.25,28.14-18.74,47.93a2.5,2.5,0,0,0,2.43,1.95,2.149,2.149,0,0,0,.56-.07,2.485,2.485,0,0,0,1.88-2.99c-4.01-17.61,2.67-35.06,16.26-42.42,9.91-5.38,21.84-4.6,35.48,2.31-1.52,10.14.61,20.06,5.63,26.05,2.86,3.4,9.01,8.56,13.99,6.32,4.68-2.1,4.77-9.4,4.74-10.84-.22-11.87-12.57-20.56-18.75-24.18,1.83-7.45,5.81-13.4,11.16-16.57,9.9-5.86,22.36-1.3,29.05,1.15l.47.17c.6.22,1.23.45,1.88.69-2.41,7.96-3.14,16.8.34,25.12,2.37,5.65,9.54,16.8,16.56,15.15,2.18-.52,4.09-2.25,5.53-5.01,5.044-9.668,1.337-20.867.67-22.53-4.621-11.52-15.31-16.105-17.752-17.081A31.423,31.423,0,0,1,134.32,7.909a20.675,20.675,0,0,1,9.715-4.841,20.064,20.064,0,0,1,12.771,2.18,21.1,21.1,0,0,1,7.683,6.926c-.616-1.183-5.6-10.392-15.714-11.956m-58.95,67.57c.05,2.57-.66,5.67-1.79,6.18-1.44.65-5.46-1.82-8.11-4.98-3.76-4.48-5.54-12.19-4.76-20.16,5.45,3.44,14.5,10.45,14.66,18.96m47.27-24.26a22.133,22.133,0,0,1-.46,18.37c-.85,1.61-1.71,2.32-2.24,2.45-3.429.841-8.566-6.806-10.81-12.21-3.3-7.937-2.406-15.94-.892-21.683,1.73.613,10.534,3.927,14.4,13.073" fill="#ffb100"/>
    </g>
  </g>
</svg>
