<svg id="Groupe_1937" data-name="Groupe 1937" xmlns="http://www.w3.org/2000/svg" xmlns:xlink="http://www.w3.org/1999/xlink" width="58.808" height="83.121" viewBox="0 0 58.808 83.121">
  <defs>
    <clipPath id="clip-path">
      <rect id="Rectangle_797" data-name="Rectangle 797" width="58.808" height="83.121" fill="none"/>
    </clipPath>
  </defs>
  <g id="Groupe_1936" data-name="Groupe 1936" clip-path="url(#clip-path)">
    <path id="Tracé_1394" data-name="Tracé 1394" d="M28.909,0a31.114,31.114,0,0,1-2.93,12.529,36.749,36.749,0,0,1-5.273,7.985c-4.152,5.084-6.534,6.039-10.4,10.188A45.1,45.1,0,0,0,2.69,41.855c-4.432,9.879-3.6,23.36,4.1,32.217,4.138,4.756,10.07,7.962,11.425,6.884,1.523-1.212-4.334-6.559-4.98-15.558-.6-8.376,3.64-15.35,5.771-18.854,3.788-6.229,5.652-5.654,9.755-12.4,2.32-3.813,5.394-8.867,5.859-15.558C35.213,10.079,31.28,3.343,28.909,0" transform="translate(0)" fill="#ffb43b"/>
    <path id="Tracé_1395" data-name="Tracé 1395" d="M172.981,160.726a49.893,49.893,0,0,1-4.248,14.732c-5.6,12-12.435,13.97-16.112,25.333-1.245,3.847-3.387,10.821.146,17.348,2.8,5.17,8.817,9.428,11.572,8.123,2.918-1.382-.818-7.589,2.2-16.522,2.545-7.54,6.514-6.988,10.546-15.558,1.3-2.766,4.851-10.594,2.783-20.1a30.12,30.12,0,0,0-6.884-13.355" transform="translate(-134.551 -143.378)" fill="#ffb43b"/>
    <path id="Tracé_1396" data-name="Tracé 1396" d="M324.475,293.579a27.356,27.356,0,0,1,.58,9.777c-.7,5.641-3.077,9.783-6.277,15.244-4.146,7.073-5.514,7.133-7.378,11.764-.4.984-4.561,11.554-1.055,14.014s14.533-3.256,19.949-11.441c6.162-9.313,3.875-19.738,2.814-23.443-.037-.13-.143-.5-.323-1.065a41.384,41.384,0,0,0-8.308-14.849" transform="translate(-275.604 -261.892)" fill="#ffb43b"/>
  </g>
</svg>
