<svg id="Groupe_1935" data-name="Groupe 1935" xmlns="http://www.w3.org/2000/svg" xmlns:xlink="http://www.w3.org/1999/xlink" width="79.689" height="62.718" viewBox="0 0 79.689 62.718">
  <defs>
    <clipPath id="clip-path">
      <rect id="Rectangle_796" data-name="Rectangle 796" width="79.689" height="62.718" fill="none"/>
    </clipPath>
  </defs>
  <g id="Groupe_1934" data-name="Groupe 1934" clip-path="url(#clip-path)">
    <path id="Tracé_1392" data-name="Tracé 1392" d="M175.071,17.907c-2.009-2.312-3.878-4.473-5.76-6.622-.5-.575-.061-.9.279-1.259a31.343,31.343,0,0,1,53.367,13.731,40.948,40.948,0,0,1,.925,6.362c.088,1.052.42,1.313,1.413,1.284,2.247-.067,4.5-.021,6.748-.021l.195.269L218.943,46.994,205.658,31.663l.122-.284h3.051c1.613,0,3.226-.027,4.838.013.77.019.969-.273.944-1.017a22.048,22.048,0,0,0-38.881-13.24c-.183.212-.364.426-.66.771" transform="translate(-152.548 0)" fill="#ffb43b"/>
    <path id="Tracé_1393" data-name="Tracé 1393" d="M57.215,190.138l6.317,7.269c-.809.816-1.527,1.6-2.311,2.319A31.345,31.345,0,0,1,8.679,177.639c-.029-.8-.285-1.051-1.075-1.038-2.466.041-4.933.015-7.4.015l-.2-.262L13.3,161l13.469,15.529c-.622.041-.956.081-1.29.081-2.186,0-4.372.027-6.557-.013-.775-.014-.973.277-.954,1.013a22.2,22.2,0,0,0,18.473,20.781,21.759,21.759,0,0,0,20.208-7.287,5.893,5.893,0,0,0,.566-.968" transform="translate(0 -145.257)" fill="#ffb43b"/>
  </g>
</svg>
