<svg id="Groupe_1939" data-name="Groupe 1939" xmlns="http://www.w3.org/2000/svg" xmlns:xlink="http://www.w3.org/1999/xlink" width="73.057" height="79.886" viewBox="0 0 73.057 79.886">
  <defs>
    <clipPath id="clip-path">
      <rect id="Rectangle_798" data-name="Rectangle 798" width="73.057" height="79.886" fill="#ffb43b"/>
    </clipPath>
  </defs>
  <g id="Groupe_1938" data-name="Groupe 1938" clip-path="url(#clip-path)">
    <path id="Tracé_1397" data-name="Tracé 1397" d="M24.723,14.453c-6.708-.067-12.008-.477-17.157-1.964a32.288,32.288,0,0,1-4.82-1.93,6.832,6.832,0,0,1-2-1.574A2.509,2.509,0,0,1,.788,5.371,11.028,11.028,0,0,1,5.5,2.581,46.2,46.2,0,0,1,17.9.215,69.535,69.535,0,0,1,35.083.972a28.311,28.311,0,0,1,8.329,2.522,10.819,10.819,0,0,1,2.416,1.687,2.548,2.548,0,0,1-.06,4.116,14.628,14.628,0,0,1-3.523,2.163A35.334,35.334,0,0,1,31.67,13.94c-2.762.286-5.54.413-6.947.513" transform="translate(0 -0.001)" fill="#ffb43b"/>
    <path id="Tracé_1398" data-name="Tracé 1398" d="M245.411,263.829A54.885,54.885,0,0,1,261,265.954a45.53,45.53,0,0,1,4.691,2.026,2.953,2.953,0,0,1,.593.409c2.128,1.678,2.162,3.526.048,5.23a15.3,15.3,0,0,1-5.41,2.536,57.961,57.961,0,0,1-16.968,2.074,54.269,54.269,0,0,1-15.84-2.086,22.564,22.564,0,0,1-4.825-2.106c-2.931-1.741-2.923-4.124-.074-5.992a24.146,24.146,0,0,1,8.71-3.085,66.867,66.867,0,0,1,13.488-1.13" transform="translate(-194.841 -232.513)" fill="#ffb43b"/>
    <path id="Tracé_1399" data-name="Tracé 1399" d="M1.191,106.487a58.612,58.612,0,0,0,46.467.029c.029.251.065.422.065.593,0,2.487-.01,4.974.012,7.461a.809.809,0,0,1-.6.885,58.2,58.2,0,0,1-45.36-.027c-.241-.1-.559-.412-.562-.628-.038-2.723-.025-5.447-.025-8.313" transform="translate(-1.047 -93.847)" fill="#ffb43b"/>
    <path id="Tracé_1400" data-name="Tracé 1400" d="M222.33,465.06a59.194,59.194,0,0,0,46.477.023c.021.3.053.548.053.8,0,2.353-.021,4.707.018,7.06a1.025,1.025,0,0,1-.761,1.117,60.09,60.09,0,0,1-14.031,3.863,58.452,58.452,0,0,1-30.153-3.525c-1.6-.626-1.6-.62-1.6-2.3q0-3.048,0-6.1v-.942" transform="translate(-195.94 -409.858)" fill="#ffb43b"/>
    <path id="Tracé_1401" data-name="Tracé 1401" d="M222.194,559.134a58.822,58.822,0,0,0,46.452.029c.035.3.077.5.077.7,0,2.433-.016,4.866.019,7.3a.92.92,0,0,1-.705.985,58.736,58.736,0,0,1-27.3,4.313,59.521,59.521,0,0,1-17.7-4.241,1.157,1.157,0,0,1-.858-1.292c.048-2.272.018-4.545.018-6.817v-.98" transform="translate(-195.804 -492.766)" fill="#ffb43b"/>
    <path id="Tracé_1402" data-name="Tracé 1402" d="M268.862,370.6c0,2.821.018,5.495-.028,8.167a1.118,1.118,0,0,1-.624.752,57.417,57.417,0,0,1-15.287,4.1,58.423,58.423,0,0,1-28.228-3.384c-2.358-.882-2.364-.867-2.364-3.383V370.6a59.106,59.106,0,0,0,46.531,0" transform="translate(-195.941 -326.61)" fill="#ffb43b"/>
    <path id="Tracé_1403" data-name="Tracé 1403" d="M47.571,201.457v4.956c-1.636.165-3.252.31-4.864.493a59.828,59.828,0,0,0-14.141,3.452,5.557,5.557,0,0,0-3.6,3.919c-.042.155-.086.309-.136.462a2.785,2.785,0,0,1-.188.311c-2.486-.195-5.074-.319-7.643-.616a56.462,56.462,0,0,1-15.22-4.03.964.964,0,0,1-.716-1.053c.034-2.38.013-4.76.016-7.141,0-.23.027-.46.045-.758a59.076,59.076,0,0,0,46.442.005" transform="translate(-0.94 -177.54)" fill="#ffb43b"/>
    <path id="Tracé_1404" data-name="Tracé 1404" d="M1.076,387.787a61.944,61.944,0,0,0,11.6,3.625,59.1,59.1,0,0,0,12.007,1.163v8.573c-1.622,0-3.223.1-4.807-.018a58.446,58.446,0,0,1-18.081-4.324,1.019,1.019,0,0,1-.731-1.128c.035-2.587.015-5.176.015-7.892" transform="translate(-0.935 -341.757)" fill="#ffb43b"/>
    <path id="Tracé_1405" data-name="Tracé 1405" d="M24.654,487.048v8.705c-.31.014-.57.038-.83.035a59.124,59.124,0,0,1-21.882-4.4,1.255,1.255,0,0,1-.932-1.4c.053-2.512.02-5.025.02-7.7a58.673,58.673,0,0,0,23.625,4.767" transform="translate(-0.889 -425.035)" fill="#ffb43b"/>
    <path id="Tracé_1406" data-name="Tracé 1406" d="M1.078,293.284a59.459,59.459,0,0,0,23.609,4.823v8.653c-1.07,0-2.131.05-3.185-.008a59.289,59.289,0,0,1-19.7-4.44,1.014,1.014,0,0,1-.744-1.117c.035-2.591.015-5.182.015-7.912" transform="translate(-0.937 -258.472)" fill="#ffb43b"/>
  </g>
</svg>
