<svg xmlns="http://www.w3.org/2000/svg" width="92" height="92" viewBox="0 0 92 92">
  <g id="Groupe_222" data-name="Groupe 222" transform="translate(-545 -10827)">
    <path id="Tracé_98" data-name="Tracé 98" d="M46,0A46,46,0,1,1,0,46,46,46,0,0,1,46,0Z" transform="translate(545 10827)" fill="#5766f2"/>
    <path id="Icon_simple-discord" data-name="Icon simple-discord" d="M47.37,0a6.3,6.3,0,0,1,6.242,5.926V57.462L47.2,52.02l-3.52-3.2-3.84-3.347,1.6,5.279H7.836A5.941,5.941,0,0,1,1.755,44.82V5.938A6.061,6.061,0,0,1,7.848.007H47.353ZM32.722,13.606H32.65l-.484.479a19.286,19.286,0,0,1,7.365,3.68,26.045,26.045,0,0,0-8.964-2.722,24.615,24.615,0,0,0-5.926,0h-.479a21.348,21.348,0,0,0-6.728,1.76c-1.118.486-1.76.8-1.76.8s2.4-2.4,7.686-3.68l-.323-.323a14.386,14.386,0,0,0-8.325,3.041,37.472,37.472,0,0,0-4.322,16.808s2.394,4.166,8.962,4.324c0,0,.958-1.276,1.927-2.4a9.474,9.474,0,0,1-5.124-3.362,7.941,7.941,0,0,1,.8.479H17.1a.191.191,0,0,1,.144.072v.014a.183.183,0,0,0,.144.072c.79.326,1.58.646,2.227.958a19.587,19.587,0,0,0,4.31,1.283,24.592,24.592,0,0,0,7.686,0,22.127,22.127,0,0,0,4.31-1.281,34.537,34.537,0,0,0,3.345-1.765,9.515,9.515,0,0,1-5.279,3.362c.79,1.116,1.9,2.394,1.9,2.394a12.5,12.5,0,0,0,9.266-4.132A37.394,37.394,0,0,0,40.81,16.664a14.4,14.4,0,0,0-8.224-3.017l.134-.048Zm.4,10.566a3.212,3.212,0,1,0,0,.007Zm-10.877,0a13.231,13.231,0,1,1-.01.007Z" transform="translate(563.269 10844.018)" fill="#fff"/>
  </g>
</svg>
