<svg id="jupiter-logo_1_" data-name="jupiter-logo (1)" xmlns="http://www.w3.org/2000/svg" width="71.312" height="70.682" viewBox="0 0 71.312 70.682">
  <path id="Tracé_57" data-name="Tracé 57" d="M9.573,77.951A36.3,36.3,0,0,0,35.241,92.86,33.717,33.717,0,0,0,24.069,82.539,33.706,33.706,0,0,0,9.573,77.951Z" transform="translate(-2.746 -22.363)" fill="#fff"/>
  <path id="Tracé_58" data-name="Tracé 58" d="M28.334,66.8C19.183,61.485,9.279,60.13,2.192,62.523A36.461,36.461,0,0,0,4.886,69.06a36.793,36.793,0,0,1,19.135,5.163A36.8,36.8,0,0,1,37.989,88.292a36.659,36.659,0,0,0,7.017-.9C43.574,80.053,37.482,72.119,28.334,66.8Z" transform="translate(-0.629 -17.61)" fill="#fff"/>
  <path id="Tracé_59" data-name="Tracé 59" d="M81.838,27.612A36.272,36.272,0,0,0,36.693,1.384a67.008,67.008,0,0,1,25.047,8.85A66.946,66.946,0,0,1,81.838,27.612Z" transform="translate(-10.526 0)" fill="#fff"/>
  <path id="Tracé_60" data-name="Tracé 60" d="M60.252,52.654C56.244,46,49.378,39.623,40.919,34.71S23.524,26.989,15.763,26.8C8.935,26.642,3.81,28.627,1.707,32.248c-.012.022-.029.042-.042.063-.189.679-.352,1.36-.5,2.042a29.05,29.05,0,0,1,10.125-1.877c8.415-.158,17.833,2.534,26.524,7.583s15.7,11.9,19.73,19.286a29.19,29.19,0,0,1,3.381,9.734c.52-.465,1.03-.945,1.525-1.445.013-.023.022-.047.035-.071C64.586,63.94,63.773,58.506,60.252,52.654Z" transform="translate(-0.334 -7.687)" fill="#fff"/>
  <path id="Tracé_61" data-name="Tracé 61" d="M34.15,50.74C21.2,43.215,6.883,42.036,0,47.288A36.135,36.135,0,0,0,.376,52.2,28.514,28.514,0,0,1,6.6,51.047c7.692-.579,16.172,1.565,23.867,6.038s13.762,10.781,17.07,17.745a28.28,28.28,0,0,1,2.08,5.975,36.39,36.39,0,0,0,4.455-2.1C55.223,70.118,47.107,58.267,34.15,50.74Z" transform="translate(0 -12.642)" fill="#fff"/>
  <path id="Tracé_62" data-name="Tracé 62" d="M70.157,36.963c-4.054-6.65-10.98-13.042-19.5-17.988s-17.489-7.8-25.276-8.026c-5.936-.171-10.533,1.267-12.917,3.985,9.9-1.677,22.954,1.142,35.609,8.493s21.574,17.3,25.017,26.728C74.272,46.74,73.245,42.034,70.157,36.963Z" transform="translate(-3.576 -3.137)" fill="#fff"/>
</svg>
