<svg xmlns="http://www.w3.org/2000/svg" width="92" height="92" viewBox="0 0 92 92">
  <g id="Groupe_221" data-name="Groupe 221" transform="translate(-440 -10827)">
    <path id="Tracé_97" data-name="Tracé 97" d="M46,0A46,46,0,1,1,0,46,46,46,0,0,1,46,0Z" transform="translate(440 10827)" fill="#1ea2f1"/>
    <path id="Icon_ionic-logo-twitter" data-name="Icon ionic-logo-twitter" d="M56.891,9.849a23.011,23.011,0,0,1-6.537,1.8,11.422,11.422,0,0,0,5.008-6.3,22.617,22.617,0,0,1-7.23,2.763,11.379,11.379,0,0,0-19.692,7.783,11.143,11.143,0,0,0,.294,2.6A32.256,32.256,0,0,1,5.269,6.581,11.4,11.4,0,0,0,8.808,21.794a11.117,11.117,0,0,1-5.173-1.423v.141A11.392,11.392,0,0,0,12.77,31.681a11.457,11.457,0,0,1-3,.4,10.738,10.738,0,0,1-2.14-.212,11.4,11.4,0,0,0,10.639,7.912A22.82,22.82,0,0,1,4.129,44.66a23.071,23.071,0,0,1-2.716-.165,31.815,31.815,0,0,0,17.423,5.149c20.962,0,32.412-17.364,32.412-32.424,0-.494-.012-.988-.035-1.47A23.17,23.17,0,0,0,56.891,9.849Z" transform="translate(459.954 10845.676)" fill="#fff"/>
  </g>
</svg>
