<?xml version="1.0" standalone="no"?>
<!DOCTYPE svg PUBLIC "-//W3C//DTD SVG 20010904//EN"
 "http://www.w3.org/TR/2001/REC-SVG-20010904/DTD/svg10.dtd">
<svg version="1.0" xmlns="http://www.w3.org/2000/svg"
 width="260.000000pt" height="260.000000pt" viewBox="0 0 260.000000 260.000000"
 preserveAspectRatio="xMidYMid meet">
<metadata>
Created by potrace 1.14, written by Peter Selinger 2001-2017
</metadata>
<g transform="translate(0.000000,260.000000) scale(0.100000,-0.100000)"
fill="#000000" stroke="none">
<path d="M0 1300 l0 -1300 1300 0 1300 0 0 1300 0 1300 -1300 0 -1300 0 0
-1300z m1043 797 c48 -24 59 -25 157 -20 116 6 261 -8 339 -34 46 -15 68 -33
40 -33 -19 0 -99 -43 -99 -53 0 -5 -6 -15 -14 -21 -8 -6 -17 -21 -21 -33 -5
-18 -2 -23 12 -24 10 0 13 -3 6 -6 -16 -6 -17 -35 -3 -49 6 -6 12 -19 14 -30
3 -10 8 -28 12 -38 5 -13 4 -17 -4 -12 -16 10 -4 -22 20 -54 30 -38 69 -60
109 -60 39 0 47 11 45 63 -1 16 4 27 11 27 7 0 13 -4 13 -10 0 -5 7 -6 17 -3
11 4 14 3 9 -6 -4 -6 -2 -19 5 -27 7 -9 14 -34 16 -56 2 -25 11 -48 23 -58 11
-10 27 -35 36 -56 9 -22 32 -55 50 -74 34 -35 54 -65 96 -147 12 -24 28 -44
35 -44 7 -1 17 -2 22 -3 5 -1 23 16 40 38 l31 39 0 -59 c0 -114 -62 -278 -155
-409 -63 -89 -209 -222 -306 -280 -111 -66 -193 -87 -334 -87 -125 0 -232 25
-365 88 -112 53 -110 50 -110 166 0 92 -1 99 -22 107 -15 5 11 10 79 13 92 6
108 10 170 42 37 20 75 36 84 36 17 0 69 60 69 79 0 16 -42 41 -68 41 -28 0
-82 -36 -82 -54 0 -6 -18 -30 -40 -51 l-40 -39 -102 -4 c-82 -4 -108 -1 -133
12 -29 16 -32 22 -33 64 0 26 6 57 14 69 16 26 19 69 4 78 -7 4 -7 11 -2 18 5
7 12 36 14 66 3 30 11 57 19 62 21 13 49 11 44 -3 -2 -7 8 -27 23 -45 l28 -32
69 73 c39 40 87 96 107 124 l37 50 83 -5 c76 -5 89 -3 141 21 31 15 57 31 57
36 0 5 -26 14 -57 21 -76 15 -176 5 -266 -27 -51 -18 -100 -28 -170 -31 -94
-6 -98 -5 -104 16 -6 22 -18 27 -27 12 -3 -5 -17 -11 -31 -13 -13 -3 -22 -1
-19 3 3 5 13 9 23 9 24 0 41 20 41 49 0 27 -26 61 -47 61 -16 0 -17 -5 8 76
27 89 68 160 130 229 38 41 49 59 44 75 -7 23 40 136 64 151 24 14 85 4 144
-24z m715 -236 c10 -6 10 -10 -3 -21 -8 -7 -15 -10 -15 -7 0 3 -3 12 -6 21 -7
17 3 20 24 7z m-218 -29 c0 -5 11 -14 25 -20 21 -10 25 -19 25 -52 0 -49 -20
-53 -52 -10 -24 32 -30 54 -21 76 6 15 23 19 23 6z"/>
<path d="M1080 1950 c0 -5 -7 -10 -16 -10 -8 0 -13 -4 -9 -9 3 -5 -4 -12 -15
-16 -11 -3 -20 -12 -20 -19 0 -7 -11 -23 -25 -36 -13 -12 -22 -27 -18 -33 3
-5 -5 -18 -18 -28 -18 -14 -24 -27 -24 -63 -1 -25 3 -42 8 -39 10 6 56 46 128
111 36 33 56 43 81 43 18 0 46 3 62 6 26 5 27 7 13 21 -9 9 -31 15 -51 14 -32
-1 -36 1 -36 24 0 17 -8 27 -26 34 -32 12 -34 12 -34 0z"/>
<path d="M1373 1493 c9 -2 23 -2 30 0 6 3 -1 5 -18 5 -16 0 -22 -2 -12 -5z"/>
<path d="M1421 1486 c2 -2 20 -6 39 -10 25 -4 31 -3 20 4 -14 9 -69 15 -59 6z"/>
<path d="M1510 1460 c8 -5 20 -10 25 -10 6 0 3 5 -5 10 -8 5 -19 10 -25 10 -5
0 -3 -5 5 -10z"/>
</g>
</svg>
